<mxfile host="Electron" agent="Mozilla/5.0 (Macintosh; Intel Mac OS X 10_15_7) AppleWebKit/537.36 (KHTML, like Gecko) draw.io/24.7.17 Chrome/128.0.6613.36 Electron/32.0.1 Safari/537.36" version="24.7.17">
  <diagram name="Page-1" id="c4acf3e9-155e-7222-9cf6-157b1a14988f">
    <mxGraphModel dx="1240" dy="2287" grid="1" gridSize="10" guides="1" tooltips="1" connect="1" arrows="1" fold="1" page="1" pageScale="1" pageWidth="1169" pageHeight="827" background="none" math="0" shadow="0">
      <root>
        <mxCell id="0" />
        <mxCell id="1" parent="0" />
        <mxCell id="Kp2Br_rZbpGvOeyiRoAi-6" value="" style="endArrow=diamondThin;endFill=1;endSize=24;html=1;rounded=0;edgeStyle=orthogonalEdgeStyle;" edge="1" parent="1" source="Kp2Br_rZbpGvOeyiRoAi-16" target="Kp2Br_rZbpGvOeyiRoAi-8">
          <mxGeometry width="160" relative="1" as="geometry">
            <mxPoint x="250" y="-1470" as="sourcePoint" />
            <mxPoint x="200" y="-1340" as="targetPoint" />
            <Array as="points" />
          </mxGeometry>
        </mxCell>
        <mxCell id="Kp2Br_rZbpGvOeyiRoAi-18" value="0..1" style="edgeLabel;html=1;align=center;verticalAlign=middle;resizable=0;points=[];" vertex="1" connectable="0" parent="Kp2Br_rZbpGvOeyiRoAi-6">
          <mxGeometry x="-0.7742" y="-2" relative="1" as="geometry">
            <mxPoint x="-11" y="-8" as="offset" />
          </mxGeometry>
        </mxCell>
        <mxCell id="Kp2Br_rZbpGvOeyiRoAi-8" value="App" style="html=1;whiteSpace=wrap;" vertex="1" parent="1">
          <mxGeometry x="40" y="-1340" width="160" height="80" as="geometry" />
        </mxCell>
        <mxCell id="Kp2Br_rZbpGvOeyiRoAi-9" value="Project" style="html=1;whiteSpace=wrap;" vertex="1" parent="1">
          <mxGeometry x="600" y="-1580" width="160" height="80" as="geometry" />
        </mxCell>
        <mxCell id="Kp2Br_rZbpGvOeyiRoAi-10" value="Team" style="html=1;whiteSpace=wrap;" vertex="1" parent="1">
          <mxGeometry x="600" y="-1460" width="160" height="80" as="geometry" />
        </mxCell>
        <mxCell id="Kp2Br_rZbpGvOeyiRoAi-11" value="Timeline" style="html=1;whiteSpace=wrap;" vertex="1" parent="1">
          <mxGeometry x="600" y="-1340" width="160" height="80" as="geometry" />
        </mxCell>
        <mxCell id="Kp2Br_rZbpGvOeyiRoAi-13" value="Task" style="html=1;whiteSpace=wrap;" vertex="1" parent="1">
          <mxGeometry x="600" y="-1200" width="160" height="120" as="geometry" />
        </mxCell>
        <mxCell id="Kp2Br_rZbpGvOeyiRoAi-14" value="Source" style="html=1;whiteSpace=wrap;" vertex="1" parent="1">
          <mxGeometry x="960" y="-1360" width="160" height="120" as="geometry" />
        </mxCell>
        <mxCell id="Kp2Br_rZbpGvOeyiRoAi-15" value="SRS" style="html=1;whiteSpace=wrap;" vertex="1" parent="1">
          <mxGeometry x="600" y="-1040" width="160" height="80" as="geometry" />
        </mxCell>
        <mxCell id="Kp2Br_rZbpGvOeyiRoAi-16" value="Component" style="html=1;whiteSpace=wrap;" vertex="1" parent="1">
          <mxGeometry x="280" y="-1360" width="160" height="120" as="geometry" />
        </mxCell>
        <mxCell id="Kp2Br_rZbpGvOeyiRoAi-19" value="" style="endArrow=diamondThin;endFill=1;endSize=24;html=1;rounded=0;edgeStyle=orthogonalEdgeStyle;" edge="1" parent="1" source="Kp2Br_rZbpGvOeyiRoAi-14" target="Kp2Br_rZbpGvOeyiRoAi-16">
          <mxGeometry width="160" relative="1" as="geometry">
            <mxPoint x="330" y="-1310" as="sourcePoint" />
            <mxPoint x="160" y="-1160" as="targetPoint" />
            <Array as="points">
              <mxPoint x="1040" y="-920" />
              <mxPoint x="240" y="-920" />
              <mxPoint x="240" y="-1270" />
            </Array>
          </mxGeometry>
        </mxCell>
        <mxCell id="Kp2Br_rZbpGvOeyiRoAi-20" value="*" style="edgeLabel;html=1;align=center;verticalAlign=middle;resizable=0;points=[];" vertex="1" connectable="0" parent="Kp2Br_rZbpGvOeyiRoAi-19">
          <mxGeometry x="-0.7742" y="-2" relative="1" as="geometry">
            <mxPoint x="12" y="-161" as="offset" />
          </mxGeometry>
        </mxCell>
        <mxCell id="Kp2Br_rZbpGvOeyiRoAi-70" value="1..*" style="edgeLabel;html=1;align=center;verticalAlign=middle;resizable=0;points=[];" vertex="1" connectable="0" parent="Kp2Br_rZbpGvOeyiRoAi-19">
          <mxGeometry x="0.928" y="1" relative="1" as="geometry">
            <mxPoint x="11" y="-25" as="offset" />
          </mxGeometry>
        </mxCell>
        <mxCell id="Kp2Br_rZbpGvOeyiRoAi-22" value="" style="endArrow=diamondThin;endFill=1;endSize=24;html=1;rounded=0;edgeStyle=orthogonalEdgeStyle;" edge="1" parent="1" source="Kp2Br_rZbpGvOeyiRoAi-16" target="Kp2Br_rZbpGvOeyiRoAi-16">
          <mxGeometry width="160" relative="1" as="geometry">
            <mxPoint x="330" y="-1150" as="sourcePoint" />
            <mxPoint x="330" y="-1290" as="targetPoint" />
            <Array as="points">
              <mxPoint x="320" y="-1400" />
              <mxPoint x="240" y="-1400" />
              <mxPoint x="240" y="-1340" />
            </Array>
          </mxGeometry>
        </mxCell>
        <mxCell id="Kp2Br_rZbpGvOeyiRoAi-23" value="0..1" style="edgeLabel;html=1;align=center;verticalAlign=middle;resizable=0;points=[];" vertex="1" connectable="0" parent="Kp2Br_rZbpGvOeyiRoAi-22">
          <mxGeometry x="-0.7742" y="-2" relative="1" as="geometry">
            <mxPoint x="-12" y="15" as="offset" />
          </mxGeometry>
        </mxCell>
        <mxCell id="Kp2Br_rZbpGvOeyiRoAi-24" value="*" style="edgeLabel;html=1;align=center;verticalAlign=middle;resizable=0;points=[];" vertex="1" connectable="0" parent="Kp2Br_rZbpGvOeyiRoAi-22">
          <mxGeometry x="0.6476" y="1" relative="1" as="geometry">
            <mxPoint x="9" y="-9" as="offset" />
          </mxGeometry>
        </mxCell>
        <mxCell id="Kp2Br_rZbpGvOeyiRoAi-25" value="" style="endArrow=diamondThin;endFill=1;endSize=24;html=1;rounded=0;edgeStyle=orthogonalEdgeStyle;" edge="1" parent="1" source="Kp2Br_rZbpGvOeyiRoAi-9" target="Kp2Br_rZbpGvOeyiRoAi-16">
          <mxGeometry width="160" relative="1" as="geometry">
            <mxPoint x="540" y="-1580" as="sourcePoint" />
            <mxPoint x="440" y="-1420" as="targetPoint" />
            <Array as="points">
              <mxPoint x="480" y="-1540" />
              <mxPoint x="480" y="-1340" />
            </Array>
          </mxGeometry>
        </mxCell>
        <mxCell id="Kp2Br_rZbpGvOeyiRoAi-26" value="*" style="edgeLabel;html=1;align=center;verticalAlign=middle;resizable=0;points=[];" vertex="1" connectable="0" parent="Kp2Br_rZbpGvOeyiRoAi-25">
          <mxGeometry x="-0.7742" y="-2" relative="1" as="geometry">
            <mxPoint x="30" y="-8" as="offset" />
          </mxGeometry>
        </mxCell>
        <mxCell id="Kp2Br_rZbpGvOeyiRoAi-27" value="1" style="edgeLabel;html=1;align=center;verticalAlign=middle;resizable=0;points=[];" vertex="1" connectable="0" parent="Kp2Br_rZbpGvOeyiRoAi-25">
          <mxGeometry x="0.6476" y="1" relative="1" as="geometry">
            <mxPoint x="-11" y="14" as="offset" />
          </mxGeometry>
        </mxCell>
        <mxCell id="Kp2Br_rZbpGvOeyiRoAi-28" value="" style="endArrow=diamondThin;endFill=1;endSize=24;html=1;rounded=0;edgeStyle=orthogonalEdgeStyle;" edge="1" parent="1" source="Kp2Br_rZbpGvOeyiRoAi-10">
          <mxGeometry width="160" relative="1" as="geometry">
            <mxPoint x="720" y="-1409.9965217391305" as="sourcePoint" />
            <mxPoint x="439.9999999999998" y="-1319.9965217391305" as="targetPoint" />
            <Array as="points">
              <mxPoint x="520" y="-1420" />
              <mxPoint x="520" y="-1320" />
            </Array>
          </mxGeometry>
        </mxCell>
        <mxCell id="Kp2Br_rZbpGvOeyiRoAi-29" value="*" style="edgeLabel;html=1;align=center;verticalAlign=middle;resizable=0;points=[];" vertex="1" connectable="0" parent="Kp2Br_rZbpGvOeyiRoAi-28">
          <mxGeometry x="-0.7742" y="-2" relative="1" as="geometry">
            <mxPoint x="19" y="-8" as="offset" />
          </mxGeometry>
        </mxCell>
        <mxCell id="Kp2Br_rZbpGvOeyiRoAi-30" value="1" style="edgeLabel;html=1;align=center;verticalAlign=middle;resizable=0;points=[];" vertex="1" connectable="0" parent="Kp2Br_rZbpGvOeyiRoAi-28">
          <mxGeometry x="0.6476" y="1" relative="1" as="geometry">
            <mxPoint x="-16" y="-9" as="offset" />
          </mxGeometry>
        </mxCell>
        <mxCell id="Kp2Br_rZbpGvOeyiRoAi-31" value="" style="endArrow=diamondThin;endFill=1;endSize=24;html=1;rounded=0;edgeStyle=orthogonalEdgeStyle;" edge="1" parent="1" source="Kp2Br_rZbpGvOeyiRoAi-11" target="Kp2Br_rZbpGvOeyiRoAi-16">
          <mxGeometry width="160" relative="1" as="geometry">
            <mxPoint x="730" y="-1390" as="sourcePoint" />
            <mxPoint x="490" y="-1290" as="targetPoint" />
            <Array as="points">
              <mxPoint x="570" y="-1300" />
              <mxPoint x="570" y="-1300" />
            </Array>
          </mxGeometry>
        </mxCell>
        <mxCell id="Kp2Br_rZbpGvOeyiRoAi-32" value="*" style="edgeLabel;html=1;align=center;verticalAlign=middle;resizable=0;points=[];" vertex="1" connectable="0" parent="Kp2Br_rZbpGvOeyiRoAi-31">
          <mxGeometry x="-0.7742" y="-2" relative="1" as="geometry">
            <mxPoint x="7" y="-8" as="offset" />
          </mxGeometry>
        </mxCell>
        <mxCell id="Kp2Br_rZbpGvOeyiRoAi-33" value="1" style="edgeLabel;html=1;align=center;verticalAlign=middle;resizable=0;points=[];" vertex="1" connectable="0" parent="Kp2Br_rZbpGvOeyiRoAi-31">
          <mxGeometry x="0.6476" y="1" relative="1" as="geometry">
            <mxPoint x="2" y="-9" as="offset" />
          </mxGeometry>
        </mxCell>
        <mxCell id="Kp2Br_rZbpGvOeyiRoAi-34" value="" style="endArrow=none;html=1;rounded=0;align=center;verticalAlign=top;endFill=0;labelBackgroundColor=none;edgeStyle=orthogonalEdgeStyle;" edge="1" parent="1" source="Kp2Br_rZbpGvOeyiRoAi-13" target="Kp2Br_rZbpGvOeyiRoAi-10">
          <mxGeometry x="-0.5" y="-70" relative="1" as="geometry">
            <mxPoint x="530" y="-1220" as="sourcePoint" />
            <mxPoint x="730" y="-1220" as="targetPoint" />
            <Array as="points">
              <mxPoint x="840" y="-1160" />
              <mxPoint x="840" y="-1400" />
            </Array>
            <mxPoint as="offset" />
          </mxGeometry>
        </mxCell>
        <mxCell id="Kp2Br_rZbpGvOeyiRoAi-37" value="*" style="resizable=0;html=1;align=right;verticalAlign=bottom;labelBackgroundColor=none;" connectable="0" vertex="1" parent="Kp2Br_rZbpGvOeyiRoAi-34">
          <mxGeometry x="1" relative="1" as="geometry">
            <mxPoint x="14" as="offset" />
          </mxGeometry>
        </mxCell>
        <mxCell id="Kp2Br_rZbpGvOeyiRoAi-39" value="" style="endArrow=none;html=1;rounded=0;align=center;verticalAlign=top;endFill=0;labelBackgroundColor=none;edgeStyle=orthogonalEdgeStyle;" edge="1" parent="1" source="Kp2Br_rZbpGvOeyiRoAi-13" target="Kp2Br_rZbpGvOeyiRoAi-11">
          <mxGeometry x="-0.5" y="-70" relative="1" as="geometry">
            <mxPoint x="890" y="-1110" as="sourcePoint" />
            <mxPoint x="890" y="-1390" as="targetPoint" />
            <Array as="points">
              <mxPoint x="800" y="-1180" />
              <mxPoint x="800" y="-1280" />
            </Array>
            <mxPoint as="offset" />
          </mxGeometry>
        </mxCell>
        <mxCell id="Kp2Br_rZbpGvOeyiRoAi-40" value="*" style="resizable=0;html=1;align=left;verticalAlign=bottom;labelBackgroundColor=none;" connectable="0" vertex="1" parent="Kp2Br_rZbpGvOeyiRoAi-39">
          <mxGeometry x="-1" relative="1" as="geometry">
            <mxPoint x="6" as="offset" />
          </mxGeometry>
        </mxCell>
        <mxCell id="Kp2Br_rZbpGvOeyiRoAi-72" value="*" style="edgeLabel;html=1;align=center;verticalAlign=middle;resizable=0;points=[];" vertex="1" connectable="0" parent="Kp2Br_rZbpGvOeyiRoAi-39">
          <mxGeometry x="0.8942" y="-2" relative="1" as="geometry">
            <mxPoint y="-8" as="offset" />
          </mxGeometry>
        </mxCell>
        <mxCell id="Kp2Br_rZbpGvOeyiRoAi-42" value="" style="endArrow=none;html=1;rounded=0;align=center;verticalAlign=top;endFill=0;labelBackgroundColor=none;edgeStyle=orthogonalEdgeStyle;" edge="1" parent="1" source="Kp2Br_rZbpGvOeyiRoAi-15" target="Kp2Br_rZbpGvOeyiRoAi-13">
          <mxGeometry x="-0.5" y="-70" relative="1" as="geometry">
            <mxPoint x="890" y="-1130" as="sourcePoint" />
            <mxPoint x="890" y="-1290" as="targetPoint" />
            <Array as="points">
              <mxPoint x="800" y="-1020" />
              <mxPoint x="800" y="-1100" />
            </Array>
            <mxPoint as="offset" />
          </mxGeometry>
        </mxCell>
        <mxCell id="Kp2Br_rZbpGvOeyiRoAi-78" value="*" style="edgeLabel;html=1;align=center;verticalAlign=middle;resizable=0;points=[];" vertex="1" connectable="0" parent="Kp2Br_rZbpGvOeyiRoAi-42">
          <mxGeometry x="0.8024" relative="1" as="geometry">
            <mxPoint x="-6" y="-10" as="offset" />
          </mxGeometry>
        </mxCell>
        <mxCell id="Kp2Br_rZbpGvOeyiRoAi-79" value="*" style="edgeLabel;html=1;align=center;verticalAlign=middle;resizable=0;points=[];" vertex="1" connectable="0" parent="Kp2Br_rZbpGvOeyiRoAi-42">
          <mxGeometry x="-0.8024" relative="1" as="geometry">
            <mxPoint x="-6" y="-10" as="offset" />
          </mxGeometry>
        </mxCell>
        <mxCell id="Kp2Br_rZbpGvOeyiRoAi-45" value="" style="endArrow=diamondThin;endFill=1;endSize=24;html=1;rounded=0;edgeStyle=orthogonalEdgeStyle;" edge="1" parent="1" source="Kp2Br_rZbpGvOeyiRoAi-13" target="Kp2Br_rZbpGvOeyiRoAi-13">
          <mxGeometry width="160" relative="1" as="geometry">
            <mxPoint x="290" y="-1350" as="sourcePoint" />
            <mxPoint x="370" y="-1340" as="targetPoint" />
            <Array as="points">
              <mxPoint x="680" y="-1240" />
              <mxPoint x="560" y="-1240" />
              <mxPoint x="560" y="-1180" />
            </Array>
          </mxGeometry>
        </mxCell>
        <mxCell id="Kp2Br_rZbpGvOeyiRoAi-46" value="0..1" style="edgeLabel;html=1;align=center;verticalAlign=middle;resizable=0;points=[];" vertex="1" connectable="0" parent="Kp2Br_rZbpGvOeyiRoAi-45">
          <mxGeometry x="-0.7742" y="-2" relative="1" as="geometry">
            <mxPoint x="18" y="18" as="offset" />
          </mxGeometry>
        </mxCell>
        <mxCell id="Kp2Br_rZbpGvOeyiRoAi-47" value="*" style="edgeLabel;html=1;align=center;verticalAlign=middle;resizable=0;points=[];" vertex="1" connectable="0" parent="Kp2Br_rZbpGvOeyiRoAi-45">
          <mxGeometry x="0.6476" y="1" relative="1" as="geometry">
            <mxPoint x="9" y="-4" as="offset" />
          </mxGeometry>
        </mxCell>
        <mxCell id="Kp2Br_rZbpGvOeyiRoAi-49" value="" style="endArrow=diamondThin;endFill=1;endSize=24;html=1;rounded=0;edgeStyle=orthogonalEdgeStyle;" edge="1" parent="1" source="Kp2Br_rZbpGvOeyiRoAi-9" target="Kp2Br_rZbpGvOeyiRoAi-14">
          <mxGeometry width="160" relative="1" as="geometry">
            <mxPoint x="930" y="-1620" as="sourcePoint" />
            <mxPoint x="730" y="-1130" as="targetPoint" />
            <Array as="points">
              <mxPoint x="920" y="-1540" />
              <mxPoint x="920" y="-1340" />
            </Array>
          </mxGeometry>
        </mxCell>
        <mxCell id="Kp2Br_rZbpGvOeyiRoAi-71" value="*" style="edgeLabel;html=1;align=center;verticalAlign=middle;resizable=0;points=[];" vertex="1" connectable="0" parent="Kp2Br_rZbpGvOeyiRoAi-49">
          <mxGeometry x="-0.9459" y="1" relative="1" as="geometry">
            <mxPoint y="-9" as="offset" />
          </mxGeometry>
        </mxCell>
        <mxCell id="Kp2Br_rZbpGvOeyiRoAi-73" value="1" style="edgeLabel;html=1;align=center;verticalAlign=middle;resizable=0;points=[];" vertex="1" connectable="0" parent="Kp2Br_rZbpGvOeyiRoAi-49">
          <mxGeometry x="0.8345" y="1" relative="1" as="geometry">
            <mxPoint x="-1" y="-9" as="offset" />
          </mxGeometry>
        </mxCell>
        <mxCell id="Kp2Br_rZbpGvOeyiRoAi-52" value="" style="endArrow=diamondThin;endFill=1;endSize=24;html=1;rounded=0;edgeStyle=orthogonalEdgeStyle;" edge="1" parent="1" source="Kp2Br_rZbpGvOeyiRoAi-10" target="Kp2Br_rZbpGvOeyiRoAi-14">
          <mxGeometry width="160" relative="1" as="geometry">
            <mxPoint x="890" y="-1510" as="sourcePoint" />
            <mxPoint x="490" y="-1090" as="targetPoint" />
            <Array as="points">
              <mxPoint x="880" y="-1440" />
              <mxPoint x="880" y="-1320" />
            </Array>
          </mxGeometry>
        </mxCell>
        <mxCell id="Kp2Br_rZbpGvOeyiRoAi-74" value="1" style="edgeLabel;html=1;align=center;verticalAlign=middle;resizable=0;points=[];" vertex="1" connectable="0" parent="Kp2Br_rZbpGvOeyiRoAi-52">
          <mxGeometry x="0.7865" y="1" relative="1" as="geometry">
            <mxPoint y="-9" as="offset" />
          </mxGeometry>
        </mxCell>
        <mxCell id="Kp2Br_rZbpGvOeyiRoAi-80" value="*" style="edgeLabel;html=1;align=center;verticalAlign=middle;resizable=0;points=[];" vertex="1" connectable="0" parent="Kp2Br_rZbpGvOeyiRoAi-52">
          <mxGeometry x="-0.9383" relative="1" as="geometry">
            <mxPoint y="-10" as="offset" />
          </mxGeometry>
        </mxCell>
        <mxCell id="Kp2Br_rZbpGvOeyiRoAi-55" value="" style="endArrow=diamondThin;endFill=1;endSize=24;html=1;rounded=0;edgeStyle=orthogonalEdgeStyle;" edge="1" parent="1" source="Kp2Br_rZbpGvOeyiRoAi-15" target="Kp2Br_rZbpGvOeyiRoAi-14">
          <mxGeometry width="160" relative="1" as="geometry">
            <mxPoint x="810" y="-1150" as="sourcePoint" />
            <mxPoint x="730" y="-1130" as="targetPoint" />
            <Array as="points">
              <mxPoint x="920" y="-980" />
              <mxPoint x="920" y="-1260" />
            </Array>
          </mxGeometry>
        </mxCell>
        <mxCell id="Kp2Br_rZbpGvOeyiRoAi-56" value="*" style="edgeLabel;html=1;align=center;verticalAlign=middle;resizable=0;points=[];" vertex="1" connectable="0" parent="Kp2Br_rZbpGvOeyiRoAi-55">
          <mxGeometry x="-0.7742" y="-2" relative="1" as="geometry">
            <mxPoint x="-44" y="-12" as="offset" />
          </mxGeometry>
        </mxCell>
        <mxCell id="Kp2Br_rZbpGvOeyiRoAi-77" value="1" style="edgeLabel;html=1;align=center;verticalAlign=middle;resizable=0;points=[];" vertex="1" connectable="0" parent="Kp2Br_rZbpGvOeyiRoAi-55">
          <mxGeometry x="0.8555" relative="1" as="geometry">
            <mxPoint x="1" y="-10" as="offset" />
          </mxGeometry>
        </mxCell>
        <mxCell id="Kp2Br_rZbpGvOeyiRoAi-58" value="" style="endArrow=diamondThin;endFill=1;endSize=24;html=1;rounded=0;edgeStyle=orthogonalEdgeStyle;" edge="1" parent="1" source="Kp2Br_rZbpGvOeyiRoAi-11" target="Kp2Br_rZbpGvOeyiRoAi-14">
          <mxGeometry width="160" relative="1" as="geometry">
            <mxPoint x="730" y="-950" as="sourcePoint" />
            <mxPoint x="490" y="-1130" as="targetPoint" />
            <Array as="points">
              <mxPoint x="1040" y="-1300" />
              <mxPoint x="1040" y="-1300" />
            </Array>
          </mxGeometry>
        </mxCell>
        <mxCell id="Kp2Br_rZbpGvOeyiRoAi-75" value="1" style="edgeLabel;html=1;align=center;verticalAlign=middle;resizable=0;points=[];" vertex="1" connectable="0" parent="Kp2Br_rZbpGvOeyiRoAi-58">
          <mxGeometry x="0.6479" y="1" relative="1" as="geometry">
            <mxPoint x="1" y="-9" as="offset" />
          </mxGeometry>
        </mxCell>
        <mxCell id="Kp2Br_rZbpGvOeyiRoAi-81" value="*" style="edgeLabel;html=1;align=center;verticalAlign=middle;resizable=0;points=[];" vertex="1" connectable="0" parent="Kp2Br_rZbpGvOeyiRoAi-58">
          <mxGeometry x="-0.7554" relative="1" as="geometry">
            <mxPoint x="-14" y="-10" as="offset" />
          </mxGeometry>
        </mxCell>
        <mxCell id="Kp2Br_rZbpGvOeyiRoAi-61" value="" style="endArrow=diamondThin;endFill=1;endSize=24;html=1;rounded=0;edgeStyle=orthogonalEdgeStyle;" edge="1" parent="1" source="Kp2Br_rZbpGvOeyiRoAi-13" target="Kp2Br_rZbpGvOeyiRoAi-14">
          <mxGeometry width="160" relative="1" as="geometry">
            <mxPoint x="730" y="-1250" as="sourcePoint" />
            <mxPoint x="490" y="-1170" as="targetPoint" />
            <Array as="points">
              <mxPoint x="880" y="-1120" />
              <mxPoint x="880" y="-1280" />
            </Array>
          </mxGeometry>
        </mxCell>
        <mxCell id="Kp2Br_rZbpGvOeyiRoAi-76" value="1" style="edgeLabel;html=1;align=center;verticalAlign=middle;resizable=0;points=[];" vertex="1" connectable="0" parent="Kp2Br_rZbpGvOeyiRoAi-61">
          <mxGeometry x="0.7985" relative="1" as="geometry">
            <mxPoint x="2" y="-10" as="offset" />
          </mxGeometry>
        </mxCell>
        <mxCell id="Kp2Br_rZbpGvOeyiRoAi-64" value="" style="endArrow=diamondThin;endFill=1;endSize=24;html=1;rounded=0;edgeStyle=orthogonalEdgeStyle;" edge="1" parent="1" source="Kp2Br_rZbpGvOeyiRoAi-13" target="Kp2Br_rZbpGvOeyiRoAi-16">
          <mxGeometry width="160" relative="1" as="geometry">
            <mxPoint x="730" y="-1280" as="sourcePoint" />
            <mxPoint x="450" y="-1280" as="targetPoint" />
            <Array as="points">
              <mxPoint x="520" y="-1140" />
              <mxPoint x="520" y="-1280" />
            </Array>
          </mxGeometry>
        </mxCell>
        <mxCell id="Kp2Br_rZbpGvOeyiRoAi-65" value="*" style="edgeLabel;html=1;align=center;verticalAlign=middle;resizable=0;points=[];" vertex="1" connectable="0" parent="Kp2Br_rZbpGvOeyiRoAi-64">
          <mxGeometry x="-0.7742" y="-2" relative="1" as="geometry">
            <mxPoint x="19" y="-8" as="offset" />
          </mxGeometry>
        </mxCell>
        <mxCell id="Kp2Br_rZbpGvOeyiRoAi-66" value="1" style="edgeLabel;html=1;align=center;verticalAlign=middle;resizable=0;points=[];" vertex="1" connectable="0" parent="Kp2Br_rZbpGvOeyiRoAi-64">
          <mxGeometry x="0.6476" y="1" relative="1" as="geometry">
            <mxPoint x="-23" y="-9" as="offset" />
          </mxGeometry>
        </mxCell>
        <mxCell id="Kp2Br_rZbpGvOeyiRoAi-67" value="" style="endArrow=diamondThin;endFill=1;endSize=24;html=1;rounded=0;edgeStyle=orthogonalEdgeStyle;" edge="1" parent="1" source="Kp2Br_rZbpGvOeyiRoAi-15" target="Kp2Br_rZbpGvOeyiRoAi-16">
          <mxGeometry width="160" relative="1" as="geometry">
            <mxPoint x="730" y="-1110" as="sourcePoint" />
            <mxPoint x="450" y="-1260" as="targetPoint" />
            <Array as="points">
              <mxPoint x="480" y="-1000" />
              <mxPoint x="480" y="-1260" />
            </Array>
          </mxGeometry>
        </mxCell>
        <mxCell id="Kp2Br_rZbpGvOeyiRoAi-68" value="*" style="edgeLabel;html=1;align=center;verticalAlign=middle;resizable=0;points=[];" vertex="1" connectable="0" parent="Kp2Br_rZbpGvOeyiRoAi-67">
          <mxGeometry x="-0.7742" y="-2" relative="1" as="geometry">
            <mxPoint x="32" y="-8" as="offset" />
          </mxGeometry>
        </mxCell>
        <mxCell id="Kp2Br_rZbpGvOeyiRoAi-69" value="1" style="edgeLabel;html=1;align=center;verticalAlign=middle;resizable=0;points=[];" vertex="1" connectable="0" parent="Kp2Br_rZbpGvOeyiRoAi-67">
          <mxGeometry x="0.6476" y="1" relative="1" as="geometry">
            <mxPoint x="-9" y="-44" as="offset" />
          </mxGeometry>
        </mxCell>
      </root>
    </mxGraphModel>
  </diagram>
</mxfile>
